<svg width="1892" height="800" viewBox="0 0 1892 800" fill="none" xmlns="http://www.w3.org/2000/svg">
<circle cx="567" cy="400" r="280" fill="white"/>
<path fill-rule="evenodd" clip-rule="evenodd" d="M457 314.488C457 270.036 493.036 234 537.488 234H596.512C640.964 234 677 270.036 677 314.488V334.163H623.341V314.488C623.341 299.67 611.33 287.659 596.512 287.659H537.488C522.67 287.659 510.659 299.67 510.659 314.488V535.498L457 566.478V314.488ZM623.341 377.089V543.431H677V377.089H623.341Z" fill="black"/>
<path d="M1574.02 267.788C1591.13 267.788 1605 253.957 1605 236.894C1605 219.832 1591.13 206 1574.02 206C1556.91 206 1543.04 219.832 1543.04 236.894C1543.04 253.957 1556.91 267.788 1574.02 267.788Z" fill="white"/>
<path d="M1017.94 211.149C966.611 211.149 925 252.644 925 303.831V594L986.96 558.327V303.831C986.96 286.769 1000.83 272.937 1017.94 272.937H1086.1C1103.21 272.937 1117.08 286.769 1117.08 303.831V326.487H1179.04V303.831C1179.04 252.644 1137.43 211.149 1086.1 211.149H1017.94Z" fill="white"/>
<path d="M1117.08 567.462V375.918H1179.04V567.462H1117.08Z" fill="white"/>
<path d="M1490.9 291.474C1490.9 247.112 1454.84 211.149 1410.36 211.149L1317.42 211.149C1272.93 211.149 1236.87 247.112 1236.87 291.474V312.07H1298.83V291.474C1298.83 281.236 1307.15 272.937 1317.42 272.937L1410.36 272.937C1420.62 272.937 1428.94 281.236 1428.94 291.474V408.872C1428.94 419.109 1420.62 427.408 1410.36 427.408L1298.83 427.408V390.335H1236.87V563.342H1298.83V489.196H1410.36C1454.84 489.196 1490.9 453.234 1490.9 408.872V291.474Z" fill="white"/>
<path d="M1236.87 365.62V336.785H1298.83V365.62H1236.87Z" fill="white"/>
<path d="M1543.04 563.342V325.397L1605 289.724V563.342H1543.04Z" fill="white"/>
</svg>
