<svg width="256" height="256" viewBox="0 0 256 256" fill="none" xmlns="http://www.w3.org/2000/svg">
<circle cx="128" cy="128" r="128" fill="black"/>
<mask id="path-2-outside-1_421_6813" maskUnits="userSpaceOnUse" x="77" y="50" width="98" height="150" fill="black">
<rect fill="white" x="77" y="50" width="98" height="150"/>
<path d="M78.6562 197.75V85.25C78.6562 63.375 89.5938 52.4375 111.469 52.4375H140.531C162.406 52.4375 173.344 63.375 173.344 85.25V189.312L155.531 197.75H154.594V85.25C154.594 74.625 149.906 69.3125 140.531 69.3125H111.469C102.094 69.3125 97.4062 74.625 97.4062 85.25V189.312L79.5938 197.75H78.6562Z"/>
</mask>
<path d="M78.6562 197.75V85.25C78.6562 63.375 89.5938 52.4375 111.469 52.4375H140.531C162.406 52.4375 173.344 63.375 173.344 85.25V189.312L155.531 197.75H154.594V85.25C154.594 74.625 149.906 69.3125 140.531 69.3125H111.469C102.094 69.3125 97.4062 74.625 97.4062 85.25V189.312L79.5938 197.75H78.6562Z" fill="white"/>
<path d="M78.6562 197.75H77.1562V199.25H78.6562V197.75ZM173.344 189.312L173.986 190.668L174.844 190.262V189.312H173.344ZM155.531 197.75V199.25H155.869L156.173 199.106L155.531 197.75ZM154.594 197.75H153.094V199.25H154.594V197.75ZM97.4062 189.312L98.0484 190.668L98.9062 190.262V189.312H97.4062ZM79.5938 197.75V199.25H79.931L80.2359 199.106L79.5938 197.75ZM80.1562 197.75V85.25H77.1562V197.75H80.1562ZM80.1562 85.25C80.1562 74.5437 82.8318 66.7895 87.92 61.7013C93.0083 56.6131 100.762 53.9375 111.469 53.9375V50.9375C100.3 50.9375 91.648 53.7307 85.7987 59.58C79.9494 65.4292 77.1562 74.0813 77.1562 85.25H80.1562ZM111.469 53.9375H140.531V50.9375H111.469V53.9375ZM140.531 53.9375C151.238 53.9375 158.992 56.6131 164.08 61.7013C169.168 66.7895 171.844 74.5437 171.844 85.25H174.844C174.844 74.0813 172.051 65.4292 166.201 59.58C160.352 53.7307 151.7 50.9375 140.531 50.9375V53.9375ZM171.844 85.25V189.312H174.844V85.25H171.844ZM172.702 187.957L154.889 196.394L156.173 199.106L173.986 190.668L172.702 187.957ZM155.531 196.25H154.594V199.25H155.531V196.25ZM156.094 197.75V85.25H153.094V197.75H156.094ZM156.094 85.25C156.094 79.7493 154.884 75.3435 152.203 72.3044C149.49 69.2295 145.502 67.8125 140.531 67.8125V70.8125C144.935 70.8125 147.979 72.0517 149.953 74.2893C151.959 76.5627 153.094 80.1257 153.094 85.25H156.094ZM140.531 67.8125H111.469V70.8125H140.531V67.8125ZM111.469 67.8125C106.498 67.8125 102.51 69.2295 99.7971 72.3044C97.1156 75.3435 95.9062 79.7493 95.9062 85.25H98.9062C98.9062 80.1257 100.041 76.5627 102.047 74.2893C104.021 72.0517 107.065 70.8125 111.469 70.8125V67.8125ZM95.9062 85.25V189.312H98.9062V85.25H95.9062ZM96.7641 187.957L78.9516 196.394L80.2359 199.106L98.0484 190.668L96.7641 187.957ZM79.5938 196.25H78.6562V199.25H79.5938V196.25Z" fill="white" mask="url(#path-2-outside-1_421_6813)"/>
<rect x="142" y="90" width="41" height="25" fill="black"/>
<rect x="127" y="188" width="70" height="44" fill="black"/>
</svg>
