<svg width="1318" height="560" viewBox="0 0 1318 560" fill="none" xmlns="http://www.w3.org/2000/svg">
<circle cx="280" cy="280" r="280" fill="black"/>
<path fill-rule="evenodd" clip-rule="evenodd" d="M170 194.488C170 150.036 206.036 114 250.488 114H309.512C353.964 114 390 150.036 390 194.488V214.163H336.341V194.488C336.341 179.67 324.33 167.659 309.512 167.659H250.488C235.67 167.659 223.659 179.67 223.659 194.488V415.498L170 446.478V194.488ZM336.341 257.089V423.431H390V257.089H336.341Z" fill="white"/>
<path d="M1287.02 147.788C1304.13 147.788 1318 133.957 1318 116.894C1318 99.8318 1304.13 86 1287.02 86C1269.91 86 1256.04 99.8318 1256.04 116.894C1256.04 133.957 1269.91 147.788 1287.02 147.788Z" fill="black"/>
<path d="M730.94 91.149C679.611 91.149 638 132.644 638 183.831V474L699.96 438.327V183.831C699.96 166.769 713.831 152.937 730.94 152.937H799.097C816.207 152.937 830.077 166.769 830.077 183.831V206.487H892.037V183.831C892.037 132.644 850.426 91.149 799.097 91.149H730.94Z" fill="black"/>
<path d="M830.077 447.462V255.918H892.037V447.462H830.077Z" fill="black"/>
<path d="M1203.9 171.474C1203.9 127.112 1167.84 91.149 1123.36 91.149L1030.42 91.149C985.93 91.149 949.867 127.112 949.867 171.474V192.07H1011.83V171.474C1011.83 161.236 1020.15 152.937 1030.42 152.937L1123.36 152.937C1133.62 152.937 1141.94 161.236 1141.94 171.474V288.872C1141.94 299.109 1133.62 307.408 1123.36 307.408L1011.83 307.408V270.335H949.867V443.342H1011.83V369.196H1123.36C1167.84 369.196 1203.9 333.234 1203.9 288.872V171.474Z" fill="black"/>
<path d="M949.867 245.62V216.785H1011.83V245.62H949.867Z" fill="black"/>
<path d="M1256.04 443.342V205.397L1318 169.724V443.342H1256.04Z" fill="black"/>
</svg>
