<svg width="560" height="560" viewBox="0 0 560 560" fill="none" xmlns="http://www.w3.org/2000/svg">
<path d="M560 280C560 434.64 434.64 560 280 560C125.36 560 0 434.64 0 280C0 125.36 125.36 0 280 0C434.64 0 560 125.36 560 280Z" fill="black"/>
<path fill-rule="evenodd" clip-rule="evenodd" d="M170 194.488C170 150.036 206.036 114 250.488 114H309.512C353.964 114 390 150.036 390 194.488V214.163H336.341V194.488C336.341 179.67 324.33 167.659 309.512 167.659H250.488C235.67 167.659 223.659 179.67 223.659 194.488V415.498L170 446.478V194.488ZM336.341 257.089V423.431H390V257.089H336.341Z" fill="white"/>
</svg>
